<svg width="18" height="18" viewBox="0 0 18 18" fill="none" xmlns="http://www.w3.org/2000/svg">
    <path d="M14.625 2.25V15.75H3.375V2.25H14.625ZM14.625 1.125H3.375C3.07663 1.125 2.79048 1.24353 2.5795 1.4545C2.36853 1.66548 2.25 1.95163 2.25 2.25V15.75C2.25 16.0484 2.36853 16.3345 2.5795 16.5455C2.79048 16.7565 3.07663 16.875 3.375 16.875H14.625C14.9234 16.875 15.2095 16.7565 15.4205 16.5455C15.6315 16.3345 15.75 16.0484 15.75 15.75V2.25C15.75 1.95163 15.6315 1.66548 15.4205 1.4545C15.2095 1.24353 14.9234 1.125 14.625 1.125Z" fill="#C1C7CD"/>
    <path d="M6.1875 12.9375H5.0625V14.0625H6.1875V12.9375Z" fill="#C1C7CD"/>
    <path d="M12.9375 12.9375H11.8125V14.0625H12.9375V12.9375Z" fill="#C1C7CD"/>
    <path d="M6.1875 10.125H5.0625V11.25H6.1875V10.125Z" fill="#C1C7CD"/>
    <path d="M12.9375 10.125H11.8125V11.25H12.9375V10.125Z" fill="#C1C7CD"/>
    <path d="M6.1875 7.3125H5.0625V8.4375H6.1875V7.3125Z" fill="#C1C7CD"/>
    <path d="M9.5625 12.9375H8.4375V14.0625H9.5625V12.9375Z" fill="#C1C7CD"/>
    <path d="M9.5625 10.125H8.4375V11.25H9.5625V10.125Z" fill="#C1C7CD"/>
    <path d="M9.5625 7.3125H8.4375V8.4375H9.5625V7.3125Z" fill="#C1C7CD"/>
    <path d="M12.9375 7.3125H11.8125V8.4375H12.9375V7.3125Z" fill="#C1C7CD"/>
    <path d="M12.9375 3.9375H5.0625V5.625H12.9375V3.9375Z" fill="#C1C7CD"/>
</svg>